<?xml version="1.0" encoding="UTF-8" standalone="no"?><svg xmlns="http://www.w3.org/2000/svg" xmlns:xlink="http://www.w3.org/1999/xlink" data-name="Layer 45" fill="#51b6b6" height="500.1" preserveAspectRatio="xMidYMid meet" version="1" viewBox="0.0 -0.1 500.1 500.1" width="500.1" zoomAndPan="magnify"><g id="change1_1"><path d="M474.4485,139.774A247.5331,247.5331,0,0,1,500,250.0009C500,387.851,387.8493,500,249.9991,500S0,387.851,0,250.0009,112.149,0,249.9991,0a247.6584,247.6584,0,0,1,108.458,24.69,5.3481,5.3481,0,1,1-4.6451,9.6349A237.0564,237.0564,0,0,0,249.9991,10.6969c-131.9515,0-239.3021,107.3507-239.3021,239.304,0,131.9515,107.3506,239.3021,239.3021,239.3021S489.303,381.9524,489.303,250.0009a236.9641,236.9641,0,0,0-24.4511-105.5052,5.3476,5.3476,0,1,1,9.5966-4.7217ZM249.86,45.9355a202.4178,202.4178,0,0,1,68.999,12.0271q1.3684.4962,2.7334,1.0116a5.3487,5.3487,0,0,0,3.7886-10.004q-1.4364-.5433-2.8832-1.0655A213.0509,213.0509,0,0,0,249.86,35.2386c-117.8178,0-213.6707,95.8528-213.6707,213.6706S132.0421,462.58,249.86,462.58,463.5287,366.727,463.5287,248.9092a212.8968,212.8968,0,0,0-13.6741-75.3747,5.3478,5.3478,0,1,0-10.0075,3.7745,202.298,202.298,0,0,1,12.9847,71.6c0,111.9209-91.0528,202.9737-202.9719,202.9737-111.9209,0-202.9737-91.0528-202.9737-202.9737S137.939,45.9355,249.86,45.9355Zm244.7917.1689H453.8973V5.3484A5.3487,5.3487,0,0,0,448.5488,0H391.4637a5.3487,5.3487,0,0,0-5.3485,5.3484v40.756H345.361a5.3488,5.3488,0,0,0-5.3485,5.3485v57.0834a5.3488,5.3488,0,0,0,5.3485,5.3485h40.7542v40.7559a5.3487,5.3487,0,0,0,5.3485,5.3485h57.0851a5.3487,5.3487,0,0,0,5.3485-5.3485V113.8848h40.7543A5.3488,5.3488,0,0,0,500,108.5363V51.4529A5.3488,5.3488,0,0,0,494.6516,46.1044Z" fill="#51b6b6"/></g><g id="change2_1"><path d="M417.9858,181.5328H407.3405a15.3334,15.3334,0,0,0-14.3386-9.9727h-4.2377a15.3212,15.3212,0,0,0,0,30.6423h4.2377a15.3335,15.3335,0,0,0,14.3386-9.9727h5.2968v73.7887a42.6137,42.6137,0,1,1-85.2273,0V192.23h5.2968a15.3335,15.3335,0,0,0,14.3386,9.9727h4.2377a15.3212,15.3212,0,0,0,0-30.6423h-4.2377a15.3334,15.3334,0,0,0-14.3386,9.9727H322.0615a5.3487,5.3487,0,0,0-5.3484,5.3485v79.1371a53.3842,53.3842,0,0,0,47.9621,53.042v10.055a35.2619,35.2619,0,0,1-35.2212,35.2211H236a35.27,35.27,0,0,1-34.8862-30.4127,30.4639,30.4639,0,1,0-10.7671.108A45.9816,45.9816,0,0,0,236,375.0335H329.454a45.97,45.97,0,0,0,45.9181-45.9181V319.06a53.3843,53.3843,0,0,0,47.9621-53.042V186.8813A5.3487,5.3487,0,0,0,417.9858,181.5328Zm-24.9839,9.9726h-4.2377a4.6242,4.6242,0,1,1,0-9.2483h4.2377a4.6242,4.6242,0,0,1,0,9.2483Zm-45.9565-9.2483h4.2377a4.6242,4.6242,0,1,1,0,9.2483h-4.2377a4.6242,4.6242,0,1,1,0-9.2483ZM175.6628,304.0009a19.7661,19.7661,0,1,1,19.7661,19.766A19.7886,19.7886,0,0,1,175.6628,304.0009Zm-26.9044-116.977A10.1156,10.1156,0,1,1,158.874,197.14,10.1157,10.1157,0,0,1,148.7584,187.0239Zm73.2508,0A10.1156,10.1156,0,1,1,232.1248,197.14,10.1156,10.1156,0,0,1,222.0092,187.0239Zm-53.213,30.0417a5.3449,5.3449,0,0,1,7.4569-1.2657c3.5517,2.521,7.2479,3.0434,10.1363,1.4329,2.6393-1.4664,4.1169-4.4643,4.0489-8.0717-3.4518-.9788-5.7925-2.8706-5.7925-5.0454,0-3.1786,4.9974-5.7553,11.162-5.7553s11.162,2.5767,11.162,5.7553c0,2.1749-2.3409,4.0669-5.793,5.0456-.068,3.6073,1.41,6.6051,4.0489,8.0715,2.89,1.6105,6.5863,1.0881,10.1363-1.4329a5.3482,5.3482,0,1,1,6.1912,8.7226,22.0937,22.0937,0,0,1-12.7358,4.3265,17.9018,17.9018,0,0,1-13.01-5.53,17.9024,17.9024,0,0,1-13.01,5.53,22.093,22.093,0,0,1-12.7357-4.3265A5.3485,5.3485,0,0,1,168.7962,217.0656Zm-12.243-72.9617a9.8817,9.8817,0,0,0,.0139-1.0167,19.8567,19.8567,0,1,0-23.7442,20.6539,5.3469,5.3469,0,0,0,5.6479-2.4931c2.5384-4.2343,8.3622-9.0656,15.201-12.61A4.86,4.86,0,0,0,156.5532,144.1039Zm-24.63,7.9584a9.1284,9.1284,0,0,1,4.2533-16.869c.1968-.0121.3935-.0191.5885-.0191a9.1737,9.1737,0,0,1,8.5433,5.8882A53.0933,53.0933,0,0,0,131.9228,152.0623Zm105.1412-3.423c6.8388,3.5431,12.6644,8.3744,15.2028,12.6087a5.3469,5.3469,0,0,0,5.6479,2.4931,19.8236,19.8236,0,1,0-23.7442-20.67c-.014.2141-.0088.6268.0052.9071A5.3542,5.3542,0,0,0,237.064,148.6393ZM247.93,137.4636a9.1392,9.1392,0,1,1,10.8832,14.5987,53.0451,53.0451,0,0,0-13.3868-11.0017A9.1117,9.1117,0,0,1,247.93,137.4636Zm55.6279,248.0353a44.6774,44.6774,0,0,1-79.1688,28.4142,60.527,60.527,0,0,1-15.5593,2.0487H182.1674a60.4156,60.4156,0,0,1-14.7711-1.8491,44.6114,44.6114,0,0,1-3.5446,3.8322,5.3479,5.3479,0,1,1-7.3994-7.7233,33.9986,33.9986,0,1,0-50.26-45.5455,5.3477,5.3477,0,0,1-8.4092-6.609,44.6426,44.6426,0,0,1,24.445-15.7844l.4553-4.725a31.2851,31.2851,0,0,1-28.6314-55.3964l29.8693-18.7057a31.5812,31.5812,0,0,1,4.6607-2.4061C112.2734,249.32,103.76,232.1082,103.76,210.4636a81.0934,81.0934,0,0,1,7.8555-34.9583,40.7839,40.7839,0,1,1,63.433-49.2766,98.0664,98.0664,0,0,1,41.5185,0,40.7876,40.7876,0,1,1,63.4347,49.2766,81.1165,81.1165,0,0,1,7.8521,34.9583c0,21.7613-8.6181,39.055-25.1145,50.79a31.2163,31.2163,0,0,1,4.1977,2.2024l29.8692,18.7057a31.2859,31.2859,0,0,1-28.6052,55.4068l.4592,4.3141a44.3132,44.3132,0,0,1,17.3412,8.0995,5.348,5.348,0,1,1-6.4976,8.4963,34.017,34.017,0,0,0-41.2731-.0035,5.348,5.348,0,1,1-6.4975-8.4963,44.2569,44.2569,0,0,1,26.0564-9.152l-1.3337-12.5309a5.35,5.35,0,0,1,8.1586-5.0994l4.6677,2.9231a20.5833,20.5833,0,1,0,21.8482-34.89l-29.8709-18.7057a20.5716,20.5716,0,0,0-14.39-2.817,5.3486,5.3486,0,0,1-2.9876-10.1972c22.08-9.3512,33.2747-25.8527,33.2747-49.0451a70.768,70.768,0,0,0-8.5833-33.8631,5.3485,5.3485,0,0,1,1.5895-6.8754,30.0883,30.0883,0,1,0-45.58-35.3239,5.3379,5.3379,0,0,1-6.3618,3.23,87.4108,87.4108,0,0,0-44.8265,0,5.344,5.344,0,0,1-6.3618-3.23,30.0912,30.0912,0,1,0-45.58,35.3239,5.3484,5.3484,0,0,1,1.59,6.8754,70.7986,70.7986,0,0,0-8.585,33.8631c0,23.3839,11.3725,39.96,33.8022,49.27a5.3482,5.3482,0,0,1-3.2244,10.1572,20.4526,20.4526,0,0,0-15.4378,2.6324L99.7275,291.2286a20.5837,20.5837,0,0,0,21.85,34.89L126.16,323.25a5.3492,5.3492,0,0,1,8.162,5.0473L133.1,340.9781a44.6754,44.6754,0,0,1,40.3661,63.5129,49.5708,49.5708,0,0,0,8.701.7739H208.83a49.7292,49.7292,0,0,0,9.5193-.9243,44.4153,44.4153,0,0,1-4.18-18.8417,5.3485,5.3485,0,1,1,10.6969,0,33.9973,33.9973,0,1,0,67.9945,0,5.3485,5.3485,0,0,1,10.697,0Zm-92.8008-81.498a15.3281,15.3281,0,1,0-15.3281,15.3281A15.346,15.346,0,0,0,210.757,304.0009Zm-19.9593,0a4.6312,4.6312,0,1,1,4.6312,4.6312A4.6373,4.6373,0,0,1,190.7977,304.0009Z"/></g></svg>