<?xml version="1.0" encoding="UTF-8" standalone="no"?><svg xmlns="http://www.w3.org/2000/svg" xmlns:xlink="http://www.w3.org/1999/xlink" fill="#000000" height="981.9" preserveAspectRatio="xMidYMid meet" version="1" viewBox="550.1 502.7 899.7 981.9" width="899.7" zoomAndPan="magnify"><g id="change1_1"><path d="M 1038.429688 1425.589844 C 1039.660156 1436.871094 1040.390625 1451.519531 1043.039062 1465.820312 C 1046.238281 1483.121094 1056.238281 1484.648438 1067.871094 1473.058594 C 1078.871094 1462.101562 1089.121094 1450.289062 1098.859375 1438.179688 C 1196.269531 1316.949219 1261.421875 1177.378906 1322.148438 1036.078125 C 1355.839844 957.671875 1368.640625 969.730469 1279.089844 932.828125 C 1147.859375 878.761719 1010.320312 873.25 871.210938 892.210938 C 797.191406 902.289062 726.386719 922.878906 660.925781 960.210938 C 644.9375 969.328125 638.535156 978.148438 646.257812 997.199219 C 671 1058.210938 691.847656 1120.890625 718.558594 1180.988281 C 741.519531 1232.648438 769.996094 1281.910156 797.226562 1331.578125 C 801.53125 1339.441406 812.140625 1343.839844 819.832031 1349.839844 C 825.4375 1342.128906 832.726562 1335.148438 836.363281 1326.609375 C 858.230469 1275.269531 878.199219 1223.101562 901.113281 1172.238281 C 909.554688 1153.519531 921.8125 1135.03125 936.609375 1120.929688 C 981.230469 1078.410156 1028.339844 1091.480469 1042.238281 1151.78125 C 1050.140625 1186.039062 1051.730469 1222.550781 1050.71875 1257.878906 C 1049.148438 1312.71875 1042.941406 1367.421875 1038.429688 1425.589844 Z M 550.132812 1003.839844 C 567.378906 979.878906 583.039062 954.53125 602.460938 932.488281 C 614.40625 918.941406 616.734375 907.070312 612.710938 890.691406 C 593.992188 814.519531 588.304688 737.058594 592.859375 658.898438 C 598.1875 567.570312 662.523438 523.199219 750.324219 550.480469 C 773.851562 557.789062 797.164062 566.679688 819.25 577.539062 C 868.136719 601.589844 919.210938 611.898438 973.507812 608.980469 C 981.851562 608.53125 990.511719 614.058594 999.023438 616.820312 C 993.304688 624.210938 989.011719 635.699219 981.613281 638.269531 C 949.003906 649.621094 915.664062 659.019531 882.246094 667.808594 C 869.09375 671.269531 854.742188 670.089844 841.507812 673.339844 C 833.285156 675.359375 826.132812 681.730469 818.5 686.148438 C 825.855469 689.929688 833.355469 697.21875 840.546875 696.921875 C 878.769531 695.359375 917.132812 693.570312 955.046875 688.710938 C 1015.25 680.988281 1065.5 652.179688 1109.050781 610.511719 C 1130.210938 590.261719 1152.050781 570.660156 1174.398438 551.730469 C 1232.269531 502.699219 1314.140625 510.570312 1362.789062 568.53125 C 1408.558594 623.058594 1412.929688 686.988281 1403.839844 752.949219 C 1397.988281 795.441406 1388.410156 837.550781 1378.089844 879.230469 C 1373.460938 897.898438 1374.789062 909.980469 1389.058594 925.03125 C 1411.75 948.960938 1429.828125 977.25 1449.871094 1003.699219 C 1243.410156 762.050781 742.597656 771.949219 550.132812 1003.839844" fill="#99d9d9"/></g></svg>